<svg width="23" height="24" viewBox="0 0 23 24" fill="none" xmlns="http://www.w3.org/2000/svg">
<path d="M9.50919 21.9547V23.8676C10.0295 23.9484 10.5593 24 11.1021 24C11.6482 24 12.1781 23.9484 12.6984 23.8676V23.1212V21.9547V5.5931L9.50919 7.82582V21.9547Z" fill="#1F4271"/>
<path d="M0 13.2929C0 18.3786 3.54775 22.6237 8.29755 23.7189V22.2616V21.7803V11.3672L5.10845 13.5983V20.2617C2.72378 18.5297 1.16646 15.7308 1.16646 12.5578C1.16646 7.28787 5.43798 3.0179 10.708 3.0179C11.2508 3.0179 11.7807 3.07284 12.3009 3.16008V2.71903C11.7807 2.6431 11.2508 2.58816 10.708 2.58816C4.79497 2.58816 0 7.37995 0 13.2929" fill="#6ED0F6"/>
<path d="M18.3109 5.05195V5.89362C19.9975 7.61256 21.0412 9.96 21.0412 12.5578C21.0412 15.7308 19.4869 18.5297 17.1024 20.2617V9.81781V3.26512V2.23117L13.91 -9.15728e-06V21.7803V22.63V23.7189C18.6598 22.6237 22.2075 18.3786 22.2075 13.2929C22.2075 9.97296 20.6857 7.01482 18.3109 5.05195Z" fill="#377AC7"/>
</svg>
